<svg id="Objects" xmlns="http://www.w3.org/2000/svg" viewBox="0 0 65.03 30.32"><defs><style>.cls-1,.cls-2{fill:#d17842;}.cls-2{font-size:11.56px;font-family:BaskOldFace, Baskerville Old Face;}</style></defs><title>logo</title><path class="cls-1" d="M49,6.85a3.28,3.28,0,0,0-1.93-2.14,5.68,5.68,0,0,0-3.25-.11c0-.54,0-1-.09-1.46a2.28,2.28,0,0,0-2.36-1.91H23.54a2.29,2.29,0,0,0-2.36,1.91c-.32,3.06,0,9.23,6.37,14.56a2.52,2.52,0,0,0,1.62.57h6.57a2.5,2.5,0,0,0,1.62-.57A20.12,20.12,0,0,0,40.05,15a5.81,5.81,0,0,0,1.84.3A6.91,6.91,0,0,0,46,13.87C48.43,12.07,49.7,9.12,49,6.85ZM28.66,14.42a1,1,0,0,1-.69.3,1,1,0,0,1-.63-.25c-3-2.8-3.79-7.42-3.83-7.61a1,1,0,0,1,.77-1.08.93.93,0,0,1,1.07.77c0,.06.74,4.2,3.26,6.55A.93.93,0,0,1,28.66,14.42Zm16.08-2.21a4.78,4.78,0,0,1-3.39,1,15.86,15.86,0,0,0,2.34-6.44,4.47,4.47,0,0,1,2.62-.15,1.24,1.24,0,0,1,.73.86C47.47,8.87,46.47,11,44.74,12.21Z"/><text class="cls-2" transform="translate(0 28.83)">Cafecitos.com</text></svg>